<svg width="28" height="28" viewBox="0 0 28 28" fill="none" xmlns="http://www.w3.org/2000/svg">
<path fill-rule="evenodd" clip-rule="evenodd" d="M20.3467 7.2758C20.3933 7.35738 20.475 7.41565 20.58 7.41565C23.38 7.41565 25.6667 9.69978 25.6667 12.4967V19.419C25.6667 22.2159 23.38 24.5 20.58 24.5H7.42C4.60834 24.5 2.33334 22.2159 2.33334 19.419V12.4967C2.33334 9.69978 4.60834 7.41565 7.42 7.41565C7.51334 7.41565 7.60667 7.36903 7.64167 7.2758L7.71167 7.13596C7.75189 7.05131 7.79317 6.96436 7.83507 6.87609C8.13353 6.24743 8.46373 5.55193 8.66834 5.14317C9.205 4.09434 10.115 3.51165 11.2467 3.5H16.7417C17.8733 3.51165 18.795 4.09434 19.3317 5.14317C19.5154 5.5103 19.7954 6.1017 20.0653 6.67168C20.1209 6.78922 20.1761 6.90586 20.23 7.01942L20.3467 7.2758ZM19.495 11.7508C19.495 12.3335 19.9617 12.7997 20.545 12.7997C21.1283 12.7997 21.6067 12.3335 21.6067 11.7508C21.6067 11.1681 21.1283 10.6903 20.545 10.6903C19.9617 10.6903 19.495 11.1681 19.495 11.7508ZM11.9817 13.5572C12.53 13.0094 13.2417 12.7181 14 12.7181C14.7583 12.7181 15.47 13.0094 16.0067 13.5455C16.5433 14.0816 16.835 14.7925 16.835 15.5499C16.8233 17.1115 15.5633 18.3818 14 18.3818C13.2417 18.3818 12.53 18.0905 11.9933 17.5544C11.4567 17.0183 11.165 16.3074 11.165 15.5499V15.5383C11.1533 14.8041 11.445 14.0932 11.9817 13.5572ZM17.2317 18.7897C16.4033 19.6171 15.26 20.1299 14 20.1299C12.775 20.1299 11.6317 19.6521 10.7567 18.7897C9.89334 17.9156 9.415 16.7736 9.415 15.5499C9.40334 14.338 9.88167 13.1959 10.745 12.3219C11.62 11.4478 12.775 10.97 14 10.97C15.225 10.97 16.38 11.4478 17.2433 12.3102C18.1067 13.1842 18.585 14.338 18.585 15.5499C18.5733 16.8202 18.06 17.9623 17.2317 18.7897Z" fill="#424242"/>
</svg>
