<svg width="28" height="28" viewBox="0 0 28 28" fill="none" xmlns="http://www.w3.org/2000/svg">
<path fill-rule="evenodd" clip-rule="evenodd" d="M5.29655 2.33337H9.23988C10.8849 2.33337 12.2032 3.67504 12.2032 5.32121V9.29837C12.2032 10.955 10.8849 12.285 9.23988 12.285H5.29655C3.66321 12.285 2.33321 10.955 2.33321 9.29837V5.32121C2.33321 3.67504 3.66321 2.33337 5.29655 2.33337ZM5.29655 15.7147H9.23988C10.8849 15.7147 12.2032 17.0459 12.2032 18.7025V22.6797C12.2032 24.3247 10.8849 25.6664 9.23988 25.6664H5.29655C3.66321 25.6664 2.33321 24.3247 2.33321 22.6797V18.7025C2.33321 17.0459 3.66321 15.7147 5.29655 15.7147ZM22.7033 2.33337H18.76C17.115 2.33337 15.7967 3.67504 15.7967 5.32121V9.29837C15.7967 10.955 17.115 12.285 18.76 12.285H22.7033C24.3367 12.285 25.6667 10.955 25.6667 9.29837V5.32121C25.6667 3.67504 24.3367 2.33337 22.7033 2.33337ZM18.76 15.7147H22.7033C24.3367 15.7147 25.6667 17.0459 25.6667 18.7025V22.6797C25.6667 24.3247 24.3367 25.6664 22.7033 25.6664H18.76C17.115 25.6664 15.7967 24.3247 15.7967 22.6797V18.7025C15.7967 17.0459 17.115 15.7147 18.76 15.7147Z" fill="#424242"/>
</svg>
