<svg width="24" height="22" viewBox="0 0 24 22" fill="none" xmlns="http://www.w3.org/2000/svg">
<path fill-rule="evenodd" clip-rule="evenodd" d="M18.3467 4.2758C18.3933 4.35738 18.475 4.41565 18.58 4.41565C21.38 4.41565 23.6667 6.69978 23.6667 9.49667V16.419C23.6667 19.2159 21.38 21.5 18.58 21.5H5.42001C2.60834 21.5 0.333344 19.2159 0.333344 16.419V9.49667C0.333344 6.69978 2.60834 4.41565 5.42001 4.41565C5.51334 4.41565 5.60668 4.36903 5.64168 4.2758L5.71168 4.13596C5.7519 4.05131 5.79318 3.96436 5.83508 3.87609C6.13354 3.24743 6.46374 2.55193 6.66834 2.14317C7.20501 1.09434 8.11501 0.511654 9.24668 0.5H14.7417C15.8733 0.511654 16.795 1.09434 17.3317 2.14317C17.5154 2.5103 17.7954 3.1017 18.0653 3.67168C18.1209 3.78922 18.1762 3.90586 18.23 4.01942L18.3467 4.2758ZM17.495 8.75083C17.495 9.33352 17.9617 9.79967 18.545 9.79967C19.1283 9.79967 19.6067 9.33352 19.6067 8.75083C19.6067 8.16815 19.1283 7.69034 18.545 7.69034C17.9617 7.69034 17.495 8.16815 17.495 8.75083ZM9.98168 10.5572C10.53 10.0094 11.2417 9.71809 12 9.71809C12.7583 9.71809 13.47 10.0094 14.0067 10.5455C14.5433 11.0816 14.835 11.7925 14.835 12.5499C14.8233 14.1115 13.5633 15.3818 12 15.3818C11.2417 15.3818 10.53 15.0905 9.99334 14.5544C9.45668 14.0183 9.16501 13.3074 9.16501 12.5499V12.5383C9.15334 11.8041 9.44501 11.0932 9.98168 10.5572ZM15.2317 15.7897C14.4033 16.6171 13.26 17.1299 12 17.1299C10.775 17.1299 9.63168 16.6521 8.75668 15.7897C7.89334 14.9156 7.41501 13.7736 7.41501 12.5499C7.40334 11.338 7.88168 10.1959 8.74501 9.32187C9.62001 8.44784 10.775 7.97003 12 7.97003C13.225 7.97003 14.38 8.44784 15.2433 9.31021C16.1067 10.1842 16.585 11.338 16.585 12.5499C16.5733 13.8202 16.06 14.9623 15.2317 15.7897Z" fill="#FAFAFA"/>
</svg>
