<svg width="20" height="17" viewBox="0 0 20 17" fill="none" xmlns="http://www.w3.org/2000/svg">
<path d="M19.3333 8.32007C19.3333 8.76305 19.0042 9.12914 18.5771 9.18708L18.4583 9.19507L0.958342 9.19507C0.475094 9.19507 0.0833416 8.80332 0.0833416 8.32007C0.0833416 7.87709 0.412521 7.511 0.839611 7.45306L0.958342 7.44507L18.4583 7.44507C18.9416 7.44507 19.3333 7.83682 19.3333 8.32007Z" fill="#212121"/>
<path d="M8.63383 14.7284C8.97628 15.0694 8.97747 15.6234 8.6365 15.9658C8.32652 16.2771 7.84048 16.3064 7.49738 16.053L7.39906 15.9685L0.340731 8.94048C0.0284872 8.62958 8.29697e-05 8.14178 0.255529 7.79869L0.340679 7.70043L7.39901 0.671262C7.74143 0.330261 8.29545 0.331408 8.63645 0.673824C8.94645 0.985111 8.97368 1.47128 8.71881 1.8133L8.63389 1.91126L2.19851 8.32078L8.63383 14.7284Z" fill="#212121"/>
</svg>
