<svg width="73" height="32" viewBox="0 0 73 32" fill="none" xmlns="http://www.w3.org/2000/svg">
<rect width="73" height="32" rx="16" fill="#FF4D67"/>
<path d="M17.2961 21V11.2H23.0711V12.656H18.7521V15.022H22.3991V16.478H18.7521V21H17.2961ZM26.7557 21.182C26.1117 21.182 25.5237 21.0163 24.9917 20.685C24.4644 20.3537 24.0421 19.9103 23.7247 19.355C23.4121 18.795 23.2557 18.1767 23.2557 17.5C23.2557 16.9867 23.3467 16.5083 23.5287 16.065C23.7107 15.617 23.9604 15.225 24.2777 14.889C24.5997 14.5483 24.9731 14.2823 25.3977 14.091C25.8224 13.8997 26.2751 13.804 26.7557 13.804C27.3997 13.804 27.9854 13.9697 28.5127 14.301C29.0447 14.6323 29.4671 15.078 29.7797 15.638C30.0971 16.198 30.2557 16.8187 30.2557 17.5C30.2557 18.0087 30.1647 18.4847 29.9827 18.928C29.8007 19.3713 29.5487 19.7633 29.2267 20.104C28.9094 20.44 28.5384 20.7037 28.1137 20.895C27.6937 21.0863 27.2411 21.182 26.7557 21.182ZM26.7557 19.726C27.1431 19.726 27.4907 19.6233 27.7987 19.418C28.1067 19.2127 28.3494 18.942 28.5267 18.606C28.7087 18.2653 28.7997 17.8967 28.7997 17.5C28.7997 17.094 28.7064 16.7207 28.5197 16.38C28.3377 16.0393 28.0927 15.7687 27.7847 15.568C27.4767 15.3627 27.1337 15.26 26.7557 15.26C26.3731 15.26 26.0254 15.3627 25.7127 15.568C25.4047 15.7733 25.1597 16.0463 24.9777 16.387C24.8004 16.7277 24.7117 17.0987 24.7117 17.5C24.7117 17.9153 24.8051 18.291 24.9917 18.627C25.1784 18.963 25.4257 19.2313 25.7337 19.432C26.0464 19.628 26.3871 19.726 26.7557 19.726ZM31.491 21V10.5H32.947V21H31.491ZM34.8218 21V10.5H36.2778V21H34.8218ZM41.137 21.182C40.493 21.182 39.905 21.0163 39.373 20.685C38.8457 20.3537 38.4233 19.9103 38.106 19.355C37.7933 18.795 37.637 18.1767 37.637 17.5C37.637 16.9867 37.728 16.5083 37.91 16.065C38.092 15.617 38.3417 15.225 38.659 14.889C38.981 14.5483 39.3543 14.2823 39.779 14.091C40.2037 13.8997 40.6563 13.804 41.137 13.804C41.781 13.804 42.3667 13.9697 42.894 14.301C43.426 14.6323 43.8483 15.078 44.161 15.638C44.4783 16.198 44.637 16.8187 44.637 17.5C44.637 18.0087 44.546 18.4847 44.364 18.928C44.182 19.3713 43.93 19.7633 43.608 20.104C43.2907 20.44 42.9197 20.7037 42.495 20.895C42.075 21.0863 41.6223 21.182 41.137 21.182ZM41.137 19.726C41.5243 19.726 41.872 19.6233 42.18 19.418C42.488 19.2127 42.7307 18.942 42.908 18.606C43.09 18.2653 43.181 17.8967 43.181 17.5C43.181 17.094 43.0877 16.7207 42.901 16.38C42.719 16.0393 42.474 15.7687 42.166 15.568C41.858 15.3627 41.515 15.26 41.137 15.26C40.7543 15.26 40.4067 15.3627 40.094 15.568C39.786 15.7733 39.541 16.0463 39.359 16.387C39.1817 16.7277 39.093 17.0987 39.093 17.5C39.093 17.9153 39.1863 18.291 39.373 18.627C39.5597 18.963 39.807 19.2313 40.115 19.432C40.4277 19.628 40.7683 19.726 41.137 19.726ZM49.0138 21H47.5648L45.2198 14H46.6478L48.2998 18.914L49.9378 14H51.4078L53.0458 18.914L54.6908 14H56.1188L53.7808 21H52.3178L50.6658 16.051L49.0138 21Z" fill="white"/>
</svg>
