<svg width="92" height="32" viewBox="0 0 92 32" fill="none" xmlns="http://www.w3.org/2000/svg">
<path d="M17.0351 21V11.2H22.8101V12.656H18.4911V15.022H22.1381V16.478H18.4911V21H17.0351ZM26.4948 21.182C25.8508 21.182 25.2628 21.0163 24.7308 20.685C24.2035 20.3537 23.7811 19.9103 23.4638 19.355C23.1511 18.795 22.9948 18.1767 22.9948 17.5C22.9948 16.9867 23.0858 16.5083 23.2678 16.065C23.4498 15.617 23.6995 15.225 24.0168 14.889C24.3388 14.5483 24.7121 14.2823 25.1368 14.091C25.5615 13.8997 26.0141 13.804 26.4948 13.804C27.1388 13.804 27.7245 13.9697 28.2518 14.301C28.7838 14.6323 29.2061 15.078 29.5188 15.638C29.8361 16.198 29.9948 16.8187 29.9948 17.5C29.9948 18.0087 29.9038 18.4847 29.7218 18.928C29.5398 19.3713 29.2878 19.7633 28.9658 20.104C28.6485 20.44 28.2775 20.7037 27.8528 20.895C27.4328 21.0863 26.9801 21.182 26.4948 21.182ZM26.4948 19.726C26.8821 19.726 27.2298 19.6233 27.5378 19.418C27.8458 19.2127 28.0885 18.942 28.2658 18.606C28.4478 18.2653 28.5388 17.8967 28.5388 17.5C28.5388 17.094 28.4455 16.7207 28.2588 16.38C28.0768 16.0393 27.8318 15.7687 27.5238 15.568C27.2158 15.3627 26.8728 15.26 26.4948 15.26C26.1121 15.26 25.7645 15.3627 25.4518 15.568C25.1438 15.7733 24.8988 16.0463 24.7168 16.387C24.5395 16.7277 24.4508 17.0987 24.4508 17.5C24.4508 17.9153 24.5441 18.291 24.7308 18.627C24.9175 18.963 25.1648 19.2313 25.4728 19.432C25.7855 19.628 26.1261 19.726 26.4948 19.726ZM31.23 21V10.5H32.686V21H31.23ZM34.5609 21V10.5H36.0169V21H34.5609ZM40.8761 21.182C40.2321 21.182 39.6441 21.0163 39.1121 20.685C38.5847 20.3537 38.1624 19.9103 37.8451 19.355C37.5324 18.795 37.3761 18.1767 37.3761 17.5C37.3761 16.9867 37.4671 16.5083 37.6491 16.065C37.8311 15.617 38.0807 15.225 38.3981 14.889C38.7201 14.5483 39.0934 14.2823 39.5181 14.091C39.9427 13.8997 40.3954 13.804 40.8761 13.804C41.5201 13.804 42.1057 13.9697 42.6331 14.301C43.1651 14.6323 43.5874 15.078 43.9001 15.638C44.2174 16.198 44.3761 16.8187 44.3761 17.5C44.3761 18.0087 44.2851 18.4847 44.1031 18.928C43.9211 19.3713 43.6691 19.7633 43.3471 20.104C43.0297 20.44 42.6587 20.7037 42.2341 20.895C41.8141 21.0863 41.3614 21.182 40.8761 21.182ZM40.8761 19.726C41.2634 19.726 41.6111 19.6233 41.9191 19.418C42.2271 19.2127 42.4697 18.942 42.6471 18.606C42.8291 18.2653 42.9201 17.8967 42.9201 17.5C42.9201 17.094 42.8267 16.7207 42.6401 16.38C42.4581 16.0393 42.2131 15.7687 41.9051 15.568C41.5971 15.3627 41.2541 15.26 40.8761 15.26C40.4934 15.26 40.1457 15.3627 39.8331 15.568C39.5251 15.7733 39.2801 16.0463 39.0981 16.387C38.9207 16.7277 38.8321 17.0987 38.8321 17.5C38.8321 17.9153 38.9254 18.291 39.1121 18.627C39.2987 18.963 39.5461 19.2313 39.8541 19.432C40.1667 19.628 40.5074 19.726 40.8761 19.726ZM48.7529 21H47.3039L44.9589 14H46.3869L48.0389 18.914L49.6769 14H51.1469L52.7849 18.914L54.4299 14H55.8579L53.5199 21H52.0569L50.4049 16.051L48.7529 21ZM57.1453 14H58.6013V21H57.1453V14ZM57.8873 12.985C57.6633 12.985 57.4766 12.9127 57.3273 12.768C57.1779 12.6233 57.1033 12.4413 57.1033 12.222C57.1033 12.0073 57.1779 11.8277 57.3273 11.683C57.4766 11.5337 57.6609 11.459 57.8803 11.459C58.0949 11.459 58.2769 11.5337 58.4263 11.683C58.5756 11.8277 58.6503 12.0073 58.6503 12.222C58.6503 12.4413 58.5756 12.6233 58.4263 12.768C58.2816 12.9127 58.1019 12.985 57.8873 12.985ZM66.7214 16.611V21H65.2654V16.968C65.2654 16.6553 65.1884 16.3707 65.0344 16.114C64.8851 15.8573 64.6821 15.6543 64.4254 15.505C64.1734 15.351 63.8888 15.274 63.5714 15.274C63.2634 15.274 62.9811 15.351 62.7244 15.505C62.4678 15.6543 62.2624 15.8573 62.1084 16.114C61.9544 16.3707 61.8774 16.6553 61.8774 16.968V21H60.4214V14H61.8774V14.742C62.1201 14.4527 62.4188 14.224 62.7734 14.056C63.1281 13.888 63.5108 13.804 63.9214 13.804C64.4394 13.804 64.9108 13.93 65.3354 14.182C65.7601 14.434 66.0961 14.7723 66.3434 15.197C66.5954 15.6217 66.7214 16.093 66.7214 16.611ZM73.509 14H74.965V21.182C74.965 21.6627 74.8623 22.106 74.657 22.512C74.4563 22.918 74.1833 23.268 73.838 23.562C73.4927 23.8607 73.096 24.0917 72.648 24.255C72.2047 24.4183 71.7403 24.5 71.255 24.5C70.765 24.5 70.2937 24.395 69.841 24.185C69.3883 23.9797 68.9893 23.6997 68.644 23.345C68.3033 22.9903 68.049 22.589 67.881 22.141L69.218 21.539C69.3113 21.8283 69.4607 22.085 69.666 22.309C69.876 22.533 70.1187 22.7103 70.394 22.841C70.674 22.9717 70.961 23.037 71.255 23.037C71.5443 23.037 71.822 22.9903 72.088 22.897C72.3587 22.8083 72.599 22.6823 72.809 22.519C73.0237 22.3557 73.194 22.1597 73.32 21.931C73.446 21.7023 73.509 21.4527 73.509 21.182V19.999C73.2803 20.3537 72.9863 20.6407 72.627 20.86C72.2677 21.0747 71.85 21.182 71.374 21.182C70.8793 21.182 70.4127 21.0863 69.974 20.895C69.5353 20.7037 69.1503 20.44 68.819 20.104C68.4877 19.7633 68.2287 19.3713 68.042 18.928C67.8553 18.4847 67.762 18.0087 67.762 17.5C67.762 16.9913 67.8553 16.5153 68.042 16.072C68.2287 15.624 68.4877 15.232 68.819 14.896C69.1503 14.5553 69.5353 14.2893 69.974 14.098C70.4127 13.9067 70.8793 13.811 71.374 13.811C71.85 13.811 72.2677 13.9207 72.627 14.14C72.9863 14.3547 73.2803 14.6417 73.509 15.001V14ZM71.388 19.775C71.794 19.775 72.1487 19.6723 72.452 19.467C72.7553 19.257 72.991 18.9793 73.159 18.634C73.327 18.2887 73.411 17.9107 73.411 17.5C73.411 17.08 73.3247 16.6997 73.152 16.359C72.984 16.0137 72.7483 15.7383 72.445 15.533C72.1417 15.323 71.7893 15.218 71.388 15.218C70.996 15.218 70.6367 15.3207 70.31 15.526C69.988 15.7313 69.7313 16.0067 69.54 16.352C69.3487 16.6973 69.253 17.08 69.253 17.5C69.253 17.92 69.3487 18.3027 69.54 18.648C69.736 18.9933 69.995 19.2687 70.317 19.474C70.6437 19.6747 71.0007 19.775 71.388 19.775Z" fill="#FF4D67"/>
<rect x="1" y="1" width="90" height="30" rx="15" stroke="#FF4D67" stroke-width="2"/>
</svg>
