<svg width="77" height="38" viewBox="0 0 77 38" fill="none" xmlns="http://www.w3.org/2000/svg">
<path d="M35.5322 20.7714V17.7047C35.5322 16.9246 36.1681 16.2908 36.956 16.2856H39.8421C40.6337 16.2856 41.2755 16.9209 41.2755 17.7047V17.7047V20.7809C41.2753 21.4432 41.8093 21.9845 42.478 22H44.4021C46.3201 22 47.875 20.4607 47.875 18.5618V18.5618V9.83784C47.8648 9.09083 47.5105 8.38935 46.913 7.93303L40.3327 2.6853C39.1799 1.77157 37.5412 1.77157 36.3884 2.6853L29.837 7.94256C29.2373 8.39702 28.8824 9.09967 28.875 9.84736V18.5618C28.875 20.4607 30.4299 22 32.3479 22H34.272C34.9574 22 35.513 21.4499 35.513 20.7714V20.7714" stroke="#9E9E9E" stroke-width="1.5" stroke-linecap="round" stroke-linejoin="round"/>
<path d="M29.8794 29H30.7194V36H29.8794V32.67H26.4144V36H25.5744V29H26.4144V31.83H29.8794V29ZM34.2732 36.13C33.8132 36.13 33.3932 36.0117 33.0132 35.775C32.6366 35.5383 32.3349 35.2217 32.1082 34.825C31.8849 34.425 31.7732 33.9833 31.7732 33.5C31.7732 33.1333 31.8382 32.7917 31.9682 32.475C32.0982 32.155 32.2766 31.875 32.5032 31.635C32.7332 31.3917 32.9999 31.2017 33.3032 31.065C33.6066 30.9283 33.9299 30.86 34.2732 30.86C34.7332 30.86 35.1516 30.9783 35.5282 31.215C35.9082 31.4517 36.2099 31.77 36.4332 32.17C36.6599 32.57 36.7732 33.0133 36.7732 33.5C36.7732 33.8633 36.7082 34.2033 36.5782 34.52C36.4482 34.8367 36.2682 35.1167 36.0382 35.36C35.8116 35.6 35.5466 35.7883 35.2432 35.925C34.9432 36.0617 34.6199 36.13 34.2732 36.13ZM34.2732 35.29C34.5866 35.29 34.8682 35.2083 35.1182 35.045C35.3716 34.8783 35.5699 34.66 35.7132 34.39C35.8599 34.1167 35.9332 33.82 35.9332 33.5C35.9332 33.1733 35.8582 32.8733 35.7082 32.6C35.5616 32.3267 35.3632 32.1083 35.1132 31.945C34.8632 31.7817 34.5832 31.7 34.2732 31.7C33.9599 31.7 33.6782 31.7833 33.4282 31.95C33.1782 32.1133 32.9799 32.3317 32.8332 32.605C32.6866 32.8783 32.6132 33.1767 32.6132 33.5C32.6132 33.8333 32.6882 34.1367 32.8382 34.41C32.9882 34.68 33.1899 34.895 33.4432 35.055C33.6966 35.2117 33.9732 35.29 34.2732 35.29ZM37.8006 36V31H38.6406V31.625C38.8173 31.3917 39.0389 31.2067 39.3056 31.07C39.5756 30.93 39.8689 30.86 40.1856 30.86C40.5556 30.86 40.8939 30.95 41.2006 31.13C41.5073 31.31 41.7489 31.5483 41.9256 31.845C42.1023 31.5483 42.3423 31.31 42.6456 31.13C42.9523 30.95 43.2889 30.86 43.6556 30.86C44.0323 30.86 44.3739 30.9517 44.6806 31.135C44.9873 31.315 45.2306 31.5583 45.4106 31.865C45.5939 32.1717 45.6856 32.5133 45.6856 32.89V36H44.8456V33.09C44.8456 32.8433 44.7856 32.615 44.6656 32.405C44.5456 32.195 44.3839 32.0267 44.1806 31.9C43.9773 31.7733 43.7523 31.71 43.5056 31.71C43.2589 31.71 43.0339 31.77 42.8306 31.89C42.6273 32.0067 42.4656 32.17 42.3456 32.38C42.2256 32.5867 42.1656 32.8233 42.1656 33.09V36H41.3256V33.09C41.3256 32.8233 41.2656 32.5867 41.1456 32.38C41.0256 32.17 40.8623 32.0067 40.6556 31.89C40.4523 31.77 40.2273 31.71 39.9806 31.71C39.7373 31.71 39.5123 31.7733 39.3056 31.9C39.1023 32.0267 38.9406 32.195 38.8206 32.405C38.7006 32.615 38.6406 32.8433 38.6406 33.09V36H37.8006ZM48.9897 36.13C48.5297 36.13 48.1097 36.0117 47.7297 35.775C47.353 35.5383 47.0513 35.2217 46.8247 34.825C46.6013 34.425 46.4897 33.9833 46.4897 33.5C46.4897 33.1333 46.5547 32.7917 46.6847 32.475C46.8147 32.155 46.993 31.875 47.2197 31.635C47.4497 31.3917 47.7163 31.2017 48.0197 31.065C48.323 30.9283 48.6463 30.86 48.9897 30.86C49.3663 30.86 49.7113 30.9367 50.0247 31.09C50.3413 31.24 50.6113 31.45 50.8347 31.72C51.0613 31.99 51.2297 32.3033 51.3397 32.66C51.453 33.0167 51.4947 33.3983 51.4647 33.805H47.3847C47.4247 34.0883 47.518 34.3417 47.6647 34.565C47.8113 34.785 47.998 34.96 48.2247 35.09C48.4547 35.22 48.7097 35.2867 48.9897 35.29C49.2897 35.29 49.5613 35.2133 49.8047 35.06C50.048 34.9033 50.2447 34.69 50.3947 34.42L51.2497 34.62C51.0497 35.0633 50.748 35.4267 50.3447 35.71C49.9413 35.99 49.4897 36.13 48.9897 36.13ZM47.3597 33.145H50.6197C50.593 32.865 50.503 32.61 50.3497 32.38C50.1963 32.1467 50.0013 31.96 49.7647 31.82C49.528 31.68 49.2697 31.61 48.9897 31.61C48.7097 31.61 48.453 31.6783 48.2197 31.815C47.9863 31.9517 47.793 32.1367 47.6397 32.37C47.4897 32.6 47.3963 32.8583 47.3597 33.145Z" fill="#9E9E9E"/>
</svg>
