<svg width="77" height="38" viewBox="0 0 77 38" fill="none" xmlns="http://www.w3.org/2000/svg">
<path d="M35.5098 20.7733V17.7156C35.5098 16.9351 36.1472 16.3023 36.9334 16.3023H39.8076C40.1852 16.3023 40.5473 16.4512 40.8143 16.7163C41.0813 16.9813 41.2313 17.3408 41.2313 17.7156V20.7733C41.2289 21.0978 41.3571 21.4099 41.5874 21.6402C41.8177 21.8705 42.1311 22 42.4579 22H44.4188C45.3346 22.0023 46.2138 21.6428 46.8622 21.0008C47.5106 20.3588 47.875 19.487 47.875 18.5778V9.86686C47.875 9.13246 47.5471 8.43584 46.9796 7.96467L40.309 2.67587C39.1487 1.74856 37.4861 1.7785 36.3604 2.74698L29.842 7.96467C29.2477 8.42195 28.8926 9.12064 28.875 9.86686V18.5689C28.875 20.4639 30.4224 22 32.3312 22H34.2473C34.9262 22 35.478 21.4562 35.4829 20.7822L35.5098 20.7733Z" fill="#FF4D67"/>
<path d="M29.6309 29H30.8509V36H29.6309V32.86H26.7309V36H25.5109V29H26.7309V31.64H29.6309V29ZM34.3758 36.13C33.9158 36.13 33.4958 36.0117 33.1158 35.775C32.7391 35.5383 32.4374 35.2217 32.2108 34.825C31.9874 34.425 31.8758 33.9833 31.8758 33.5C31.8758 33.1333 31.9408 32.7917 32.0708 32.475C32.2008 32.155 32.3791 31.875 32.6058 31.635C32.8358 31.3917 33.1024 31.2017 33.4058 31.065C33.7091 30.9283 34.0324 30.86 34.3758 30.86C34.8358 30.86 35.2541 30.9783 35.6308 31.215C36.0108 31.4517 36.3124 31.77 36.5358 32.17C36.7624 32.57 36.8758 33.0133 36.8758 33.5C36.8758 33.8633 36.8108 34.2033 36.6808 34.52C36.5508 34.8367 36.3708 35.1167 36.1408 35.36C35.9141 35.6 35.6491 35.7883 35.3458 35.925C35.0458 36.0617 34.7224 36.13 34.3758 36.13ZM34.3758 34.91C34.6191 34.91 34.8374 34.845 35.0308 34.715C35.2241 34.585 35.3758 34.4133 35.4858 34.2C35.5991 33.9867 35.6558 33.7533 35.6558 33.5C35.6558 33.24 35.5974 33.0033 35.4808 32.79C35.3674 32.5733 35.2124 32.4017 35.0158 32.275C34.8224 32.145 34.6091 32.08 34.3758 32.08C34.1358 32.08 33.9191 32.145 33.7258 32.275C33.5324 32.405 33.3791 32.5783 33.2658 32.795C33.1524 33.0117 33.0958 33.2467 33.0958 33.5C33.0958 33.7633 33.1541 34.0017 33.2708 34.215C33.3874 34.4283 33.5424 34.5983 33.7358 34.725C33.9324 34.8483 34.1458 34.91 34.3758 34.91ZM37.8543 36V31H39.0743V31.445C39.2443 31.265 39.4476 31.1233 39.6843 31.02C39.921 30.9133 40.176 30.86 40.4493 30.86C40.796 30.86 41.1143 30.9417 41.4043 31.105C41.6976 31.2683 41.931 31.4867 42.1043 31.76C42.281 31.4867 42.5143 31.2683 42.8043 31.105C43.0943 30.9417 43.4126 30.86 43.7593 30.86C44.126 30.86 44.4576 30.95 44.7543 31.13C45.0543 31.3067 45.2926 31.545 45.4693 31.845C45.6493 32.1417 45.7393 32.4733 45.7393 32.84V36H44.5193V33.165C44.5193 32.9717 44.471 32.795 44.3743 32.635C44.281 32.4717 44.1543 32.3417 43.9943 32.245C43.8376 32.145 43.661 32.095 43.4643 32.095C43.2676 32.095 43.0893 32.1433 42.9293 32.24C42.7726 32.3333 42.646 32.46 42.5493 32.62C42.4526 32.78 42.4043 32.9617 42.4043 33.165V36H41.1843V33.165C41.1843 32.9617 41.1376 32.78 41.0443 32.62C40.951 32.46 40.8243 32.3333 40.6643 32.24C40.5043 32.1433 40.326 32.095 40.1293 32.095C39.936 32.095 39.7593 32.145 39.5993 32.245C39.4393 32.3417 39.311 32.4717 39.2143 32.635C39.121 32.795 39.0743 32.9717 39.0743 33.165V36H37.8543ZM49.0434 36.13C48.5834 36.13 48.1634 36.0117 47.7834 35.775C47.4067 35.5383 47.105 35.22 46.8784 34.82C46.655 34.42 46.5434 33.9783 46.5434 33.495C46.5434 33.1317 46.6084 32.7917 46.7384 32.475C46.8684 32.155 47.0467 31.875 47.2734 31.635C47.5034 31.3917 47.77 31.2017 48.0734 31.065C48.3767 30.9283 48.7 30.86 49.0434 30.86C49.4334 30.86 49.79 30.9433 50.1134 31.11C50.44 31.2733 50.7167 31.4983 50.9434 31.785C51.17 32.0717 51.335 32.3983 51.4384 32.765C51.5417 33.1317 51.565 33.515 51.5084 33.915H47.8534C47.9 34.1017 47.9767 34.27 48.0834 34.42C48.19 34.5667 48.325 34.685 48.4884 34.775C48.6517 34.8617 48.8367 34.9067 49.0434 34.91C49.2567 34.9133 49.45 34.8633 49.6234 34.76C49.8 34.6533 49.9467 34.51 50.0634 34.33L51.3084 34.62C51.105 35.0633 50.8017 35.4267 50.3984 35.71C49.995 35.99 49.5434 36.13 49.0434 36.13ZM47.8134 33H50.2734C50.2367 32.8 50.1584 32.62 50.0384 32.46C49.9217 32.2967 49.7767 32.1667 49.6034 32.07C49.43 31.9733 49.2434 31.925 49.0434 31.925C48.8434 31.925 48.6584 31.9733 48.4884 32.07C48.3184 32.1633 48.1734 32.2917 48.0534 32.455C47.9367 32.615 47.8567 32.7967 47.8134 33Z" fill="#FF4D67"/>
</svg>
