<svg width="110" height="38" viewBox="0 0 110 38" fill="none" xmlns="http://www.w3.org/2000/svg">
<circle cx="54.8916" cy="11.7666" r="8.98856" stroke="#9E9E9E" stroke-width="1.5" stroke-linecap="round" stroke-linejoin="round"/>
<path d="M61.1433 18.4851L64.6673 22" stroke="#9E9E9E" stroke-width="1.5" stroke-linecap="round" stroke-linejoin="round"/>
<path d="M42.1187 36.13C41.7421 36.13 41.3787 36.0717 41.0287 35.955C40.6787 35.835 40.3721 35.665 40.1087 35.445C39.8487 35.225 39.6637 34.9633 39.5537 34.66L40.3387 34.365C40.4054 34.5517 40.5287 34.715 40.7087 34.855C40.8921 34.9917 41.1071 35.0983 41.3537 35.175C41.6004 35.2517 41.8554 35.29 42.1187 35.29C42.4187 35.29 42.6971 35.2417 42.9537 35.145C43.2137 35.045 43.4237 34.9067 43.5837 34.73C43.7437 34.5533 43.8237 34.3467 43.8237 34.11C43.8237 33.8667 43.7404 33.6683 43.5737 33.515C43.4071 33.3583 43.1937 33.235 42.9337 33.145C42.6737 33.0517 42.4021 32.98 42.1187 32.93C41.6354 32.85 41.2021 32.7367 40.8187 32.59C40.4387 32.44 40.1371 32.2317 39.9137 31.965C39.6937 31.6983 39.5837 31.3467 39.5837 30.91C39.5837 30.5033 39.7004 30.1483 39.9337 29.845C40.1704 29.5417 40.4821 29.3067 40.8687 29.14C41.2554 28.9733 41.6721 28.89 42.1187 28.89C42.4887 28.89 42.8471 28.9483 43.1937 29.065C43.5437 29.1783 43.8521 29.345 44.1187 29.565C44.3854 29.785 44.5771 30.0533 44.6937 30.37L43.8987 30.66C43.8321 30.47 43.7071 30.3067 43.5237 30.17C43.3437 30.03 43.1304 29.9233 42.8837 29.85C42.6404 29.7733 42.3854 29.735 42.1187 29.735C41.8221 29.7317 41.5454 29.78 41.2887 29.88C41.0321 29.98 40.8237 30.1183 40.6637 30.295C40.5037 30.4717 40.4237 30.6767 40.4237 30.91C40.4237 31.19 40.4971 31.405 40.6437 31.555C40.7937 31.7017 40.9971 31.8117 41.2537 31.885C41.5104 31.9583 41.7987 32.0233 42.1187 32.08C42.5721 32.1567 42.9921 32.2783 43.3787 32.445C43.7654 32.6083 44.0754 32.8267 44.3087 33.1C44.5454 33.3733 44.6637 33.71 44.6637 34.11C44.6637 34.5167 44.5454 34.8717 44.3087 35.175C44.0754 35.4783 43.7654 35.7133 43.3787 35.88C42.9921 36.0467 42.5721 36.13 42.1187 36.13ZM48.1084 36.13C47.6484 36.13 47.2284 36.0117 46.8484 35.775C46.4718 35.5383 46.1701 35.2217 45.9434 34.825C45.7201 34.425 45.6084 33.9833 45.6084 33.5C45.6084 33.1333 45.6734 32.7917 45.8034 32.475C45.9334 32.155 46.1118 31.875 46.3384 31.635C46.5684 31.3917 46.8351 31.2017 47.1384 31.065C47.4418 30.9283 47.7651 30.86 48.1084 30.86C48.4851 30.86 48.8301 30.9367 49.1434 31.09C49.4601 31.24 49.7301 31.45 49.9534 31.72C50.1801 31.99 50.3484 32.3033 50.4584 32.66C50.5718 33.0167 50.6134 33.3983 50.5834 33.805H46.5034C46.5434 34.0883 46.6368 34.3417 46.7834 34.565C46.9301 34.785 47.1168 34.96 47.3434 35.09C47.5734 35.22 47.8284 35.2867 48.1084 35.29C48.4084 35.29 48.6801 35.2133 48.9234 35.06C49.1668 34.9033 49.3634 34.69 49.5134 34.42L50.3684 34.62C50.1684 35.0633 49.8668 35.4267 49.4634 35.71C49.0601 35.99 48.6084 36.13 48.1084 36.13ZM46.4784 33.145H49.7384C49.7118 32.865 49.6218 32.61 49.4684 32.38C49.3151 32.1467 49.1201 31.96 48.8834 31.82C48.6468 31.68 48.3884 31.61 48.1084 31.61C47.8284 31.61 47.5718 31.6783 47.3384 31.815C47.1051 31.9517 46.9118 32.1367 46.7584 32.37C46.6084 32.6 46.5151 32.8583 46.4784 33.145ZM55.6167 31H56.4567V36H55.6167L55.5817 35.155C55.425 35.445 55.2084 35.68 54.9317 35.86C54.6584 36.04 54.3317 36.13 53.9517 36.13C53.585 36.13 53.2417 36.0617 52.9217 35.925C52.6017 35.785 52.3184 35.5933 52.0717 35.35C51.8284 35.1033 51.6384 34.82 51.5017 34.5C51.365 34.18 51.2967 33.835 51.2967 33.465C51.2967 33.1083 51.3634 32.7717 51.4967 32.455C51.63 32.1383 51.815 31.8617 52.0517 31.625C52.2917 31.385 52.5684 31.1983 52.8817 31.065C53.195 30.9283 53.5317 30.86 53.8917 30.86C54.285 30.86 54.63 30.9533 54.9267 31.14C55.2234 31.3233 55.4634 31.5617 55.6467 31.855L55.6167 31ZM53.9367 35.315C54.2667 35.315 54.5517 35.235 54.7917 35.075C55.035 34.9117 55.2217 34.6917 55.3517 34.415C55.485 34.1383 55.5517 33.8333 55.5517 33.5C55.5517 33.16 55.485 32.8533 55.3517 32.58C55.2184 32.3033 55.03 32.085 54.7867 31.925C54.5467 31.7617 54.2634 31.68 53.9367 31.68C53.6067 31.68 53.3067 31.7617 53.0367 31.925C52.7667 32.0883 52.5517 32.3083 52.3917 32.585C52.235 32.8583 52.1567 33.1633 52.1567 33.5C52.1567 33.8367 52.2384 34.1433 52.4017 34.42C52.565 34.6933 52.7817 34.9117 53.0517 35.075C53.3217 35.235 53.6167 35.315 53.9367 35.315ZM57.6561 36V31H58.4961V31.625C58.6727 31.3917 58.8961 31.2067 59.1661 31.07C59.4361 30.93 59.7294 30.86 60.0461 30.86C60.2394 30.86 60.4261 30.885 60.6061 30.935L60.2661 31.775C60.1294 31.7317 59.9961 31.71 59.8661 31.71C59.6161 31.71 59.3861 31.7717 59.1761 31.895C58.9694 32.015 58.8044 32.1783 58.6811 32.385C58.5577 32.5917 58.4961 32.8217 58.4961 33.075V36H57.6561ZM64.6116 34.68L65.3616 35.085C65.135 35.4017 64.8466 35.655 64.4966 35.845C64.15 36.035 63.7733 36.13 63.3666 36.13C62.9066 36.13 62.4866 36.0117 62.1066 35.775C61.73 35.5383 61.4283 35.2217 61.2016 34.825C60.9783 34.425 60.8666 33.9833 60.8666 33.5C60.8666 33.1333 60.9316 32.7917 61.0616 32.475C61.1916 32.155 61.37 31.875 61.5966 31.635C61.8266 31.3917 62.0933 31.2017 62.3966 31.065C62.7 30.9283 63.0233 30.86 63.3666 30.86C63.7733 30.86 64.15 30.955 64.4966 31.145C64.8466 31.335 65.135 31.59 65.3616 31.91L64.6116 32.315C64.4516 32.1183 64.2616 31.9667 64.0416 31.86C63.8216 31.7533 63.5966 31.7 63.3666 31.7C63.0566 31.7 62.775 31.7833 62.5216 31.95C62.2716 32.1133 62.0733 32.3317 61.9266 32.605C61.78 32.8783 61.7066 33.1767 61.7066 33.5C61.7066 33.8233 61.78 34.1217 61.9266 34.395C62.0766 34.665 62.2766 34.8817 62.5266 35.045C62.78 35.2083 63.06 35.29 63.3666 35.29C63.6133 35.29 63.845 35.2333 64.0616 35.12C64.2783 35.0067 64.4616 34.86 64.6116 34.68ZM70.7964 32.89V36H69.9564V33.075C69.9564 32.8217 69.8947 32.5917 69.7714 32.385C69.648 32.1783 69.483 32.015 69.2764 31.895C69.0697 31.7717 68.8397 31.71 68.5864 31.71C68.3364 31.71 68.1064 31.7717 67.8964 31.895C67.6897 32.015 67.5247 32.1783 67.4014 32.385C67.278 32.5917 67.2164 32.8217 67.2164 33.075V36H66.3764V28.5H67.2164V31.625C67.393 31.3917 67.6164 31.2067 67.8864 31.07C68.1564 30.93 68.4497 30.86 68.7664 30.86C69.1397 30.86 69.4797 30.9517 69.7864 31.135C70.0964 31.315 70.3414 31.5583 70.5214 31.865C70.7047 32.1717 70.7964 32.5133 70.7964 32.89Z" fill="#9E9E9E"/>
</svg>
