<svg width="78" height="38" viewBox="0 0 78 38" fill="none" xmlns="http://www.w3.org/2000/svg">
<path fill-rule="evenodd" clip-rule="evenodd" d="M29.125 10.6699C29.125 5.88166 32.9653 2 37.7026 2C39.9776 2 42.1593 2.91344 43.7679 4.53936C45.3766 6.16529 46.2803 8.37052 46.2803 10.6699C46.2803 15.4582 42.4399 19.3399 37.7026 19.3399C32.9653 19.3399 29.125 15.4582 29.125 10.6699ZM46.1384 17.6543L48.693 19.7164H48.7374C49.2542 20.2388 49.2542 21.0858 48.7374 21.6082C48.2205 22.1306 47.3826 22.1306 46.8657 21.6082L44.7457 19.1785C44.5453 18.9766 44.4326 18.7024 44.4326 18.4164C44.4326 18.1304 44.5453 17.8562 44.7457 17.6543C45.1322 17.2704 45.7518 17.2704 46.1384 17.6543Z" fill="#FF4D67"/>
<path d="M25.9638 36.13C25.5771 36.13 25.2054 36.07 24.8488 35.95C24.4954 35.8267 24.1854 35.6517 23.9188 35.425C23.6521 35.195 23.4604 34.92 23.3438 34.6L24.4888 34.18C24.5354 34.3133 24.6304 34.435 24.7738 34.545C24.9171 34.655 25.0921 34.7433 25.2988 34.81C25.5054 34.8767 25.7271 34.91 25.9638 34.91C26.2071 34.91 26.4338 34.8733 26.6438 34.8C26.8571 34.7233 27.0288 34.6183 27.1588 34.485C27.2888 34.3483 27.3538 34.19 27.3538 34.01C27.3538 33.8267 27.2854 33.6767 27.1488 33.56C27.0121 33.44 26.8371 33.345 26.6238 33.275C26.4104 33.205 26.1904 33.1517 25.9638 33.115C25.4671 33.0383 25.0221 32.92 24.6288 32.76C24.2354 32.6 23.9238 32.3783 23.6938 32.095C23.4671 31.8117 23.3538 31.445 23.3538 30.995C23.3538 30.5717 23.4754 30.2017 23.7188 29.885C23.9621 29.5683 24.2821 29.3217 24.6788 29.145C25.0754 28.9683 25.5038 28.88 25.9638 28.88C26.3471 28.88 26.7171 28.94 27.0738 29.06C27.4304 29.18 27.7421 29.355 28.0087 29.585C28.2788 29.815 28.4721 30.0917 28.5888 30.415L27.4388 30.83C27.3921 30.6967 27.2971 30.575 27.1538 30.465C27.0104 30.355 26.8354 30.2683 26.6288 30.205C26.4221 30.1383 26.2004 30.105 25.9638 30.105C25.7271 30.1017 25.5021 30.14 25.2888 30.22C25.0788 30.2967 24.9071 30.4017 24.7738 30.535C24.6404 30.6683 24.5738 30.8217 24.5738 30.995C24.5738 31.2183 24.6354 31.3867 24.7588 31.5C24.8854 31.6133 25.0538 31.6967 25.2638 31.75C25.4738 31.8 25.7071 31.8467 25.9638 31.89C26.4304 31.9633 26.8621 32.0867 27.2588 32.26C27.6554 32.4333 27.9738 32.665 28.2138 32.955C28.4538 33.2417 28.5738 33.5933 28.5738 34.01C28.5738 34.4333 28.4538 34.805 28.2138 35.125C27.9738 35.4417 27.6554 35.6883 27.2588 35.865C26.8621 36.0417 26.4304 36.13 25.9638 36.13ZM31.9277 36.13C31.4677 36.13 31.0477 36.0117 30.6677 35.775C30.2911 35.5383 29.9894 35.22 29.7627 34.82C29.5394 34.42 29.4277 33.9783 29.4277 33.495C29.4277 33.1317 29.4927 32.7917 29.6227 32.475C29.7527 32.155 29.9311 31.875 30.1577 31.635C30.3877 31.3917 30.6544 31.2017 30.9577 31.065C31.2611 30.9283 31.5844 30.86 31.9277 30.86C32.3177 30.86 32.6744 30.9433 32.9977 31.11C33.3244 31.2733 33.6011 31.4983 33.8277 31.785C34.0544 32.0717 34.2194 32.3983 34.3227 32.765C34.4261 33.1317 34.4494 33.515 34.3927 33.915H30.7377C30.7844 34.1017 30.8611 34.27 30.9677 34.42C31.0744 34.5667 31.2094 34.685 31.3727 34.775C31.5361 34.8617 31.7211 34.9067 31.9277 34.91C32.1411 34.9133 32.3344 34.8633 32.5077 34.76C32.6844 34.6533 32.8311 34.51 32.9477 34.33L34.1927 34.62C33.9894 35.0633 33.6861 35.4267 33.2827 35.71C32.8794 35.99 32.4277 36.13 31.9277 36.13ZM30.6977 33H33.1577C33.1211 32.8 33.0427 32.62 32.9227 32.46C32.8061 32.2967 32.6611 32.1667 32.4877 32.07C32.3144 31.9733 32.1277 31.925 31.9277 31.925C31.7277 31.925 31.5427 31.9733 31.3727 32.07C31.2027 32.1633 31.0577 32.2917 30.9377 32.455C30.8211 32.615 30.7411 32.7967 30.6977 33ZM39.1958 31H40.4158V36H39.1958L39.1408 35.38C39.0041 35.6033 38.8224 35.785 38.5958 35.925C38.3724 36.0617 38.1074 36.13 37.8008 36.13C37.4308 36.13 37.0841 36.06 36.7608 35.92C36.4374 35.78 36.1524 35.5867 35.9058 35.34C35.6624 35.0933 35.4708 34.8083 35.3308 34.485C35.1941 34.1617 35.1258 33.815 35.1258 33.445C35.1258 33.0883 35.1908 32.7533 35.3208 32.44C35.4541 32.1267 35.6391 31.8517 35.8758 31.615C36.1124 31.3783 36.3858 31.1933 36.6958 31.06C37.0058 30.9267 37.3391 30.86 37.6958 30.86C38.0258 30.86 38.3208 30.9333 38.5808 31.08C38.8441 31.2267 39.0674 31.4133 39.2508 31.64L39.1958 31ZM37.7708 34.955C38.0308 34.955 38.2608 34.89 38.4608 34.76C38.6608 34.63 38.8174 34.455 38.9308 34.235C39.0441 34.0117 39.1008 33.7667 39.1008 33.5C39.1008 33.23 39.0441 32.985 38.9308 32.765C38.8174 32.5417 38.6591 32.365 38.4558 32.235C38.2558 32.105 38.0274 32.04 37.7708 32.04C37.5141 32.04 37.2791 32.1067 37.0658 32.24C36.8558 32.37 36.6874 32.545 36.5608 32.765C36.4374 32.985 36.3758 33.23 36.3758 33.5C36.3758 33.77 36.4391 34.015 36.5658 34.235C36.6924 34.455 36.8608 34.63 37.0708 34.76C37.2841 34.89 37.5174 34.955 37.7708 34.955ZM41.6171 36L41.6121 31H42.8321L42.8371 31.445C43.0071 31.265 43.2104 31.1233 43.4471 31.02C43.6838 30.9133 43.9388 30.86 44.2121 30.86C44.3954 30.86 44.5788 30.8867 44.7621 30.94L44.2821 32.17C44.1554 32.12 44.0288 32.095 43.9021 32.095C43.7054 32.095 43.5254 32.1433 43.3621 32.24C43.2021 32.3333 43.0738 32.4617 42.9771 32.625C42.8838 32.785 42.8371 32.9633 42.8371 33.16V36H41.6171ZM48.3887 34.495L49.4887 35.09C49.2587 35.4033 48.9703 35.655 48.6237 35.845C48.277 36.035 47.8987 36.13 47.4887 36.13C47.0287 36.13 46.6087 36.0117 46.2287 35.775C45.852 35.5383 45.5503 35.2217 45.3237 34.825C45.1003 34.425 44.9887 33.9833 44.9887 33.5C44.9887 33.1333 45.0537 32.7917 45.1837 32.475C45.3137 32.155 45.492 31.875 45.7187 31.635C45.9487 31.3917 46.2153 31.2017 46.5187 31.065C46.822 30.9283 47.1453 30.86 47.4887 30.86C47.8987 30.86 48.277 30.955 48.6237 31.145C48.9703 31.335 49.2587 31.59 49.4887 31.91L48.3887 32.5C48.272 32.3667 48.1337 32.2633 47.9737 32.19C47.817 32.1167 47.6553 32.08 47.4887 32.08C47.2487 32.08 47.032 32.1467 46.8387 32.28C46.6453 32.41 46.492 32.5833 46.3787 32.8C46.2653 33.0133 46.2087 33.2467 46.2087 33.5C46.2087 33.75 46.2653 33.9833 46.3787 34.2C46.492 34.4133 46.6453 34.585 46.8387 34.715C47.032 34.845 47.2487 34.91 47.4887 34.91C47.662 34.91 47.827 34.8733 47.9837 34.8C48.1403 34.7233 48.2753 34.6217 48.3887 34.495ZM55.0101 32.84V36H53.7901V33.16C53.7901 32.9633 53.7417 32.785 53.6451 32.625C53.5484 32.4617 53.4184 32.3333 53.2551 32.24C53.0951 32.1433 52.9167 32.095 52.7201 32.095C52.5234 32.095 52.3434 32.1433 52.1801 32.24C52.0201 32.3333 51.8917 32.4617 51.7951 32.625C51.7017 32.785 51.6551 32.9633 51.6551 33.16V36H50.4351L50.4301 28.5H51.6501L51.6551 31.445C51.8251 31.265 52.0284 31.1233 52.2651 31.02C52.5017 30.9133 52.7567 30.86 53.0301 30.86C53.3934 30.86 53.7251 30.95 54.0251 31.13C54.3251 31.3067 54.5634 31.545 54.7401 31.845C54.9201 32.1417 55.0101 32.4733 55.0101 32.84Z" fill="#FF4D67"/>
</svg>
