<svg width="78" height="39" viewBox="0 0 78 39" fill="none" xmlns="http://www.w3.org/2000/svg">
<g clip-path="url(#clip0_1_2136)">
<g clip-path="url(#clip1_1_2136)">
<path d="M38.9364 6.10437V18.0184" stroke="#9E9E9E" stroke-width="1.5" stroke-linecap="round" stroke-linejoin="round"/>
<path d="M44.8993 12.0614H32.973" stroke="#9E9E9E" stroke-width="1.5" stroke-linecap="round" stroke-linejoin="round"/>
<path fill-rule="evenodd" clip-rule="evenodd" d="M22.7083 12.0614C22.7083 -0.108792 26.7662 -4.16669 38.9364 -4.16669C51.1066 -4.16669 55.1645 -0.108792 55.1645 12.0614C55.1645 24.2316 51.1066 28.2895 38.9364 28.2895C26.7662 28.2895 22.7083 24.2316 22.7083 12.0614Z" stroke="#9E9E9E" stroke-width="71" stroke-linecap="round" stroke-linejoin="round"/>
</g>
</g>
<rect x="27.625" y="0.75" width="22.5" height="22.5" rx="11.25" stroke="#9E9E9E" stroke-width="1.5"/>
<path d="M25.7433 36.13C25.1833 36.13 24.6967 35.9933 24.2833 35.72C23.8733 35.4467 23.5567 35.08 23.3333 34.62C23.1133 34.1567 23.0033 33.6433 23.0033 33.08V29H23.8433V33.08C23.8433 33.48 23.9167 33.8483 24.0633 34.185C24.2133 34.5217 24.4283 34.79 24.7083 34.99C24.9917 35.19 25.3367 35.29 25.7433 35.29C26.1567 35.29 26.5033 35.19 26.7833 34.99C27.0633 34.7867 27.275 34.5183 27.4183 34.185C27.565 33.8483 27.6383 33.48 27.6383 33.08V29H28.4783V33.08C28.4783 33.5033 28.415 33.9 28.2883 34.27C28.1617 34.6367 27.9783 34.96 27.7383 35.24C27.5017 35.52 27.215 35.7383 26.8783 35.895C26.5417 36.0517 26.1633 36.13 25.7433 36.13ZM30.723 38.5H29.883V31H30.723V31.855C30.893 31.5617 31.1197 31.325 31.403 31.145C31.6863 30.9617 32.023 30.87 32.413 30.87C32.7763 30.87 33.1163 30.9383 33.433 31.075C33.753 31.2117 34.033 31.4017 34.273 31.645C34.513 31.885 34.7013 32.1633 34.838 32.48C34.9747 32.7967 35.043 33.1367 35.043 33.5C35.043 33.8633 34.9747 34.205 34.838 34.525C34.7013 34.845 34.513 35.1267 34.273 35.37C34.033 35.61 33.753 35.7983 33.433 35.935C33.1163 36.0717 32.7763 36.14 32.413 36.14C32.023 36.14 31.6863 36.05 31.403 35.87C31.1197 35.6867 30.893 35.4483 30.723 35.155V38.5ZM32.403 31.685C32.0797 31.685 31.7963 31.7667 31.553 31.93C31.3097 32.0933 31.1213 32.3117 30.988 32.585C30.858 32.8583 30.793 33.1633 30.793 33.5C30.793 33.8333 30.858 34.1383 30.988 34.415C31.1213 34.6917 31.308 34.9117 31.548 35.075C31.7913 35.2383 32.0763 35.32 32.403 35.32C32.7263 35.32 33.023 35.24 33.293 35.08C33.563 34.9167 33.7797 34.6983 33.943 34.425C34.1063 34.1483 34.188 33.84 34.188 33.5C34.188 33.1667 34.108 32.8633 33.948 32.59C33.788 32.3133 33.573 32.0933 33.303 31.93C33.033 31.7667 32.733 31.685 32.403 31.685ZM36.0303 36V28.5H36.8703V36H36.0303ZM40.4225 36.13C39.9625 36.13 39.5425 36.0117 39.1625 35.775C38.7858 35.5383 38.4841 35.2217 38.2575 34.825C38.0341 34.425 37.9225 33.9833 37.9225 33.5C37.9225 33.1333 37.9875 32.7917 38.1175 32.475C38.2475 32.155 38.4258 31.875 38.6525 31.635C38.8825 31.3917 39.1491 31.2017 39.4525 31.065C39.7558 30.9283 40.0791 30.86 40.4225 30.86C40.8825 30.86 41.3008 30.9783 41.6775 31.215C42.0575 31.4517 42.3591 31.77 42.5825 32.17C42.8091 32.57 42.9225 33.0133 42.9225 33.5C42.9225 33.8633 42.8575 34.2033 42.7275 34.52C42.5975 34.8367 42.4175 35.1167 42.1875 35.36C41.9608 35.6 41.6958 35.7883 41.3925 35.925C41.0925 36.0617 40.7691 36.13 40.4225 36.13ZM40.4225 35.29C40.7358 35.29 41.0175 35.2083 41.2675 35.045C41.5208 34.8783 41.7191 34.66 41.8625 34.39C42.0091 34.1167 42.0825 33.82 42.0825 33.5C42.0825 33.1733 42.0075 32.8733 41.8575 32.6C41.7108 32.3267 41.5125 32.1083 41.2625 31.945C41.0125 31.7817 40.7325 31.7 40.4225 31.7C40.1091 31.7 39.8275 31.7833 39.5775 31.95C39.3275 32.1133 39.1291 32.3317 38.9825 32.605C38.8358 32.8783 38.7625 33.1767 38.7625 33.5C38.7625 33.8333 38.8375 34.1367 38.9875 34.41C39.1375 34.68 39.3391 34.895 39.5925 35.055C39.8458 35.2117 40.1225 35.29 40.4225 35.29ZM47.9405 31H48.7805V36H47.9405L47.9055 35.155C47.7488 35.445 47.5322 35.68 47.2555 35.86C46.9822 36.04 46.6555 36.13 46.2755 36.13C45.9088 36.13 45.5655 36.0617 45.2455 35.925C44.9255 35.785 44.6422 35.5933 44.3955 35.35C44.1522 35.1033 43.9622 34.82 43.8255 34.5C43.6888 34.18 43.6205 33.835 43.6205 33.465C43.6205 33.1083 43.6872 32.7717 43.8205 32.455C43.9538 32.1383 44.1388 31.8617 44.3755 31.625C44.6155 31.385 44.8922 31.1983 45.2055 31.065C45.5188 30.9283 45.8555 30.86 46.2155 30.86C46.6088 30.86 46.9538 30.9533 47.2505 31.14C47.5472 31.3233 47.7872 31.5617 47.9705 31.855L47.9405 31ZM46.2605 35.315C46.5905 35.315 46.8755 35.235 47.1155 35.075C47.3588 34.9117 47.5455 34.6917 47.6755 34.415C47.8088 34.1383 47.8755 33.8333 47.8755 33.5C47.8755 33.16 47.8088 32.8533 47.6755 32.58C47.5422 32.3033 47.3538 32.085 47.1105 31.925C46.8705 31.7617 46.5872 31.68 46.2605 31.68C45.9305 31.68 45.6305 31.7617 45.3605 31.925C45.0905 32.0883 44.8755 32.3083 44.7155 32.585C44.5588 32.8583 44.4805 33.1633 44.4805 33.5C44.4805 33.8367 44.5622 34.1433 44.7255 34.42C44.8888 34.6933 45.1055 34.9117 45.3755 35.075C45.6455 35.235 45.9405 35.315 46.2605 35.315ZM53.9072 28.5H54.7472V36H53.9072V35.15C53.7372 35.4433 53.5089 35.68 53.2222 35.86C52.9356 36.04 52.5989 36.13 52.2122 36.13C51.8489 36.13 51.5089 36.0617 51.1922 35.925C50.8756 35.7883 50.5956 35.6 50.3522 35.36C50.1122 35.1167 49.9239 34.8367 49.7872 34.52C49.6506 34.2033 49.5822 33.8633 49.5822 33.5C49.5822 33.1367 49.6506 32.7967 49.7872 32.48C49.9239 32.16 50.1122 31.88 50.3522 31.64C50.5956 31.3967 50.8756 31.2067 51.1922 31.07C51.5089 30.9333 51.8489 30.865 52.2122 30.865C52.5989 30.865 52.9356 30.955 53.2222 31.135C53.5089 31.315 53.7372 31.5517 53.9072 31.845V28.5ZM52.2222 35.315C52.5522 35.315 52.8372 35.235 53.0772 35.075C53.3206 34.9117 53.5072 34.6917 53.6372 34.415C53.7706 34.1383 53.8372 33.8333 53.8372 33.5C53.8372 33.16 53.7706 32.8533 53.6372 32.58C53.5039 32.3033 53.3156 32.085 53.0722 31.925C52.8322 31.7617 52.5489 31.68 52.2222 31.68C51.8922 31.68 51.5922 31.7617 51.3222 31.925C51.0556 32.0883 50.8422 32.3083 50.6822 32.585C50.5222 32.8583 50.4422 33.1633 50.4422 33.5C50.4422 33.8367 50.5239 34.1433 50.6872 34.42C50.8506 34.6933 51.0672 34.9117 51.3372 35.075C51.6072 35.235 51.9022 35.315 52.2222 35.315Z" fill="#9E9E9E"/>
<defs>
<clipPath id="clip0_1_2136">
<rect x="26.875" width="24" height="24" rx="12" fill="white"/>
</clipPath>
<clipPath id="clip1_1_2136">
<rect width="40" height="40" fill="white" transform="translate(18.875 -8)"/>
</clipPath>
</defs>
</svg>
