<svg width="78" height="38" viewBox="0 0 78 38" fill="none" xmlns="http://www.w3.org/2000/svg">
<circle cx="38.8916" cy="11.7666" r="8.98856" stroke="#9E9E9E" stroke-width="1.5" stroke-linecap="round" stroke-linejoin="round"/>
<path d="M45.1433 18.4851L48.6673 22" stroke="#9E9E9E" stroke-width="1.5" stroke-linecap="round" stroke-linejoin="round"/>
<path d="M26.1187 36.13C25.742 36.13 25.3787 36.0717 25.0287 35.955C24.6787 35.835 24.372 35.665 24.1087 35.445C23.8487 35.225 23.6637 34.9633 23.5537 34.66L24.3387 34.365C24.4054 34.5517 24.5287 34.715 24.7087 34.855C24.892 34.9917 25.107 35.0983 25.3537 35.175C25.6004 35.2517 25.8554 35.29 26.1187 35.29C26.4187 35.29 26.697 35.2417 26.9537 35.145C27.2137 35.045 27.4237 34.9067 27.5837 34.73C27.7437 34.5533 27.8237 34.3467 27.8237 34.11C27.8237 33.8667 27.7404 33.6683 27.5737 33.515C27.407 33.3583 27.1937 33.235 26.9337 33.145C26.6737 33.0517 26.402 32.98 26.1187 32.93C25.6354 32.85 25.202 32.7367 24.8187 32.59C24.4387 32.44 24.137 32.2317 23.9137 31.965C23.6937 31.6983 23.5837 31.3467 23.5837 30.91C23.5837 30.5033 23.7004 30.1483 23.9337 29.845C24.1704 29.5417 24.482 29.3067 24.8687 29.14C25.2554 28.9733 25.672 28.89 26.1187 28.89C26.4887 28.89 26.847 28.9483 27.1937 29.065C27.5437 29.1783 27.852 29.345 28.1187 29.565C28.3854 29.785 28.577 30.0533 28.6937 30.37L27.8987 30.66C27.832 30.47 27.707 30.3067 27.5237 30.17C27.3437 30.03 27.1304 29.9233 26.8837 29.85C26.6404 29.7733 26.3854 29.735 26.1187 29.735C25.822 29.7317 25.5454 29.78 25.2887 29.88C25.032 29.98 24.8237 30.1183 24.6637 30.295C24.5037 30.4717 24.4237 30.6767 24.4237 30.91C24.4237 31.19 24.497 31.405 24.6437 31.555C24.7937 31.7017 24.997 31.8117 25.2537 31.885C25.5104 31.9583 25.7987 32.0233 26.1187 32.08C26.572 32.1567 26.992 32.2783 27.3787 32.445C27.7654 32.6083 28.0754 32.8267 28.3087 33.1C28.5454 33.3733 28.6637 33.71 28.6637 34.11C28.6637 34.5167 28.5454 34.8717 28.3087 35.175C28.0754 35.4783 27.7654 35.7133 27.3787 35.88C26.992 36.0467 26.572 36.13 26.1187 36.13ZM32.1084 36.13C31.6484 36.13 31.2284 36.0117 30.8484 35.775C30.4717 35.5383 30.1701 35.2217 29.9434 34.825C29.7201 34.425 29.6084 33.9833 29.6084 33.5C29.6084 33.1333 29.6734 32.7917 29.8034 32.475C29.9334 32.155 30.1117 31.875 30.3384 31.635C30.5684 31.3917 30.8351 31.2017 31.1384 31.065C31.4417 30.9283 31.7651 30.86 32.1084 30.86C32.4851 30.86 32.8301 30.9367 33.1434 31.09C33.4601 31.24 33.7301 31.45 33.9534 31.72C34.1801 31.99 34.3484 32.3033 34.4584 32.66C34.5717 33.0167 34.6134 33.3983 34.5834 33.805H30.5034C30.5434 34.0883 30.6367 34.3417 30.7834 34.565C30.9301 34.785 31.1167 34.96 31.3434 35.09C31.5734 35.22 31.8284 35.2867 32.1084 35.29C32.4084 35.29 32.6801 35.2133 32.9234 35.06C33.1667 34.9033 33.3634 34.69 33.5134 34.42L34.3684 34.62C34.1684 35.0633 33.8667 35.4267 33.4634 35.71C33.0601 35.99 32.6084 36.13 32.1084 36.13ZM30.4784 33.145H33.7384C33.7117 32.865 33.6217 32.61 33.4684 32.38C33.3151 32.1467 33.1201 31.96 32.8834 31.82C32.6467 31.68 32.3884 31.61 32.1084 31.61C31.8284 31.61 31.5717 31.6783 31.3384 31.815C31.1051 31.9517 30.9117 32.1367 30.7584 32.37C30.6084 32.6 30.5151 32.8583 30.4784 33.145ZM39.6167 31H40.4567V36H39.6167L39.5817 35.155C39.425 35.445 39.2083 35.68 38.9317 35.86C38.6583 36.04 38.3317 36.13 37.9517 36.13C37.585 36.13 37.2417 36.0617 36.9217 35.925C36.6017 35.785 36.3183 35.5933 36.0717 35.35C35.8283 35.1033 35.6383 34.82 35.5017 34.5C35.365 34.18 35.2967 33.835 35.2967 33.465C35.2967 33.1083 35.3633 32.7717 35.4967 32.455C35.63 32.1383 35.815 31.8617 36.0517 31.625C36.2917 31.385 36.5683 31.1983 36.8817 31.065C37.195 30.9283 37.5317 30.86 37.8917 30.86C38.285 30.86 38.63 30.9533 38.9267 31.14C39.2233 31.3233 39.4633 31.5617 39.6467 31.855L39.6167 31ZM37.9367 35.315C38.2667 35.315 38.5517 35.235 38.7917 35.075C39.035 34.9117 39.2217 34.6917 39.3517 34.415C39.485 34.1383 39.5517 33.8333 39.5517 33.5C39.5517 33.16 39.485 32.8533 39.3517 32.58C39.2183 32.3033 39.03 32.085 38.7867 31.925C38.5467 31.7617 38.2633 31.68 37.9367 31.68C37.6067 31.68 37.3067 31.7617 37.0367 31.925C36.7667 32.0883 36.5517 32.3083 36.3917 32.585C36.235 32.8583 36.1567 33.1633 36.1567 33.5C36.1567 33.8367 36.2383 34.1433 36.4017 34.42C36.565 34.6933 36.7817 34.9117 37.0517 35.075C37.3217 35.235 37.6167 35.315 37.9367 35.315ZM41.6561 36V31H42.4961V31.625C42.6727 31.3917 42.8961 31.2067 43.1661 31.07C43.4361 30.93 43.7294 30.86 44.0461 30.86C44.2394 30.86 44.4261 30.885 44.6061 30.935L44.2661 31.775C44.1294 31.7317 43.9961 31.71 43.8661 31.71C43.6161 31.71 43.3861 31.7717 43.1761 31.895C42.9694 32.015 42.8044 32.1783 42.6811 32.385C42.5577 32.5917 42.4961 32.8217 42.4961 33.075V36H41.6561ZM48.6116 34.68L49.3616 35.085C49.1349 35.4017 48.8466 35.655 48.4966 35.845C48.1499 36.035 47.7733 36.13 47.3666 36.13C46.9066 36.13 46.4866 36.0117 46.1066 35.775C45.7299 35.5383 45.4283 35.2217 45.2016 34.825C44.9783 34.425 44.8666 33.9833 44.8666 33.5C44.8666 33.1333 44.9316 32.7917 45.0616 32.475C45.1916 32.155 45.3699 31.875 45.5966 31.635C45.8266 31.3917 46.0933 31.2017 46.3966 31.065C46.6999 30.9283 47.0233 30.86 47.3666 30.86C47.7733 30.86 48.1499 30.955 48.4966 31.145C48.8466 31.335 49.1349 31.59 49.3616 31.91L48.6116 32.315C48.4516 32.1183 48.2616 31.9667 48.0416 31.86C47.8216 31.7533 47.5966 31.7 47.3666 31.7C47.0566 31.7 46.7749 31.7833 46.5216 31.95C46.2716 32.1133 46.0733 32.3317 45.9266 32.605C45.7799 32.8783 45.7066 33.1767 45.7066 33.5C45.7066 33.8233 45.7799 34.1217 45.9266 34.395C46.0766 34.665 46.2766 34.8817 46.5266 35.045C46.7799 35.2083 47.0599 35.29 47.3666 35.29C47.6133 35.29 47.8449 35.2333 48.0616 35.12C48.2783 35.0067 48.4616 34.86 48.6116 34.68ZM54.7964 32.89V36H53.9564V33.075C53.9564 32.8217 53.8947 32.5917 53.7714 32.385C53.648 32.1783 53.483 32.015 53.2764 31.895C53.0697 31.7717 52.8397 31.71 52.5864 31.71C52.3364 31.71 52.1064 31.7717 51.8964 31.895C51.6897 32.015 51.5247 32.1783 51.4014 32.385C51.278 32.5917 51.2164 32.8217 51.2164 33.075V36H50.3764V28.5H51.2164V31.625C51.393 31.3917 51.6164 31.2067 51.8864 31.07C52.1564 30.93 52.4497 30.86 52.7664 30.86C53.1397 30.86 53.4797 30.9517 53.7864 31.135C54.0964 31.315 54.3414 31.5583 54.5214 31.865C54.7047 32.1717 54.7964 32.5133 54.7964 32.89Z" fill="#9E9E9E"/>
</svg>
