<svg width="28" height="28" viewBox="0 0 28 28" fill="none" xmlns="http://www.w3.org/2000/svg">
<path fill-rule="evenodd" clip-rule="evenodd" d="M14 11.0833C15.611 11.0833 16.9167 12.3889 16.9167 13.9999C16.9167 15.6109 15.611 16.9166 14 16.9166C12.389 16.9166 11.0833 15.6109 11.0833 13.9999C11.0833 12.3889 12.389 11.0833 14 11.0833Z" stroke="#212121" stroke-width="1.5" stroke-linecap="round" stroke-linejoin="round"/>
<path fill-rule="evenodd" clip-rule="evenodd" d="M23.5293 8.45858V8.45858C22.7319 7.06762 20.9664 6.59167 19.5866 7.3949C18.3864 8.09211 16.8864 7.21974 16.8864 5.82416C16.8864 4.21885 15.5935 2.91663 13.9997 2.91663V2.91663C12.4059 2.91663 11.113 4.21885 11.113 5.82416C11.113 7.21974 9.61306 8.09211 8.414 7.3949C7.03301 6.59167 5.26759 7.06762 4.47012 8.45858C3.67379 9.84954 4.14632 11.6277 5.52731 12.4298C6.72638 13.1282 6.72638 14.8718 5.52731 15.5701C4.14632 16.3734 3.67379 18.1515 4.47012 19.5413C5.26759 20.9323 7.03301 21.4082 8.41285 20.6062H8.414C9.61306 19.9078 11.113 20.7802 11.113 22.1758V22.1758C11.113 23.7811 12.4059 25.0833 13.9997 25.0833V25.0833C15.5935 25.0833 16.8864 23.7811 16.8864 22.1758V22.1758C16.8864 20.7802 18.3864 19.9078 19.5866 20.6062C20.9664 21.4082 22.7319 20.9323 23.5293 19.5413C24.3268 18.1515 23.8531 16.3734 22.4733 15.5701H22.4721C21.2731 14.8718 21.2731 13.1282 22.4733 12.4298C23.8531 11.6277 24.3268 9.84954 23.5293 8.45858Z" stroke="#212121" stroke-width="1.5" stroke-linecap="round" stroke-linejoin="round"/>
</svg>
